<?xml version="1.0" encoding="utf-8"?>
<!-- Generator: Adobe Illustrator 26.4.1, SVG Export Plug-In . SVG Version: 6.00 Build 0)  -->
<svg version="1.1" id="Слой_1" xmlns="http://www.w3.org/2000/svg" xmlns:xlink="http://www.w3.org/1999/xlink" x="0px" y="0px"
	 viewBox="0 0 1002 1280" style="enable-background:new 0 0 1002 1280;" xml:space="preserve">
<style type="text/css">
	.st0{opacity:0.5;}
	.st1{fill:#9FD3C7;}
</style>
<g transform="translate(0.000000,1280.000000) scale(0.100000,-0.100000)" class="st0">
	<path class="st1" d="M2846,12654c-104.5-50.4-269-95.1-395.1-107c-96-8.2-116-6.7-290.2,24.6c-201.8,36.1-257.1,56.2-399.9,143.8
		l-62.2,38.6l-21.4-17.5c-17-15.2-24.8-42.3-46.3-156.3c-58.2-302.5-165.5-549.4-340.3-782.3c-221.8-296.5-628.7-691-828.8-804.5
		c-88.1-49.2-194.5-82-246.4-76.8c-50.7,6-48.6,6.7-68.5-8c-26.5-17.6-32.6-68.3-13.6-115.4c27.1-69.9,56.1-95.4,230.9-196.8
		c546.4-318.3,814.3-439.5,1118.3-506.1c185.6-41.4,192.9-40.6,288,48c185.2,172,379.2,415.6,548.3,690.1
		c365.1,591.9,583.3,1152.2,641.6,1647.7c18.8,167.3,15,208.6-19.8,212.8C2931.8,12690.5,2889.3,12674.7,2846,12654z
		 M2874.2,12471.2c-69.1-680.5-603.4-1729.7-1148.1-2257.9l-68.9-66.9l-116.2,20.8c-292.3,52.4-600.7,190.9-1195.6,539.3
		c-73.6,42.7-132.4,94.8-129,113.5c0.7,3.9,26.3,10.5,56.4,14.3c172.7,22.9,391.2,170.7,715.8,485.4
		c188,181.7,436.4,496.8,528.5,670.3c86.8,161.2,168.4,395.5,199.8,570.7c12,66.9,15,72.5,29.7,63.8c47.3-30.8,180.3-88.2,262-114
		c168.4-52.5,388.4-66.5,556.6-34.7c75.6,13.9,222.5,56.7,273.2,79.1c18.8,8.8,36.2,14.9,40.1,14.1
		C2881.5,12568.4,2879.6,12524.1,2874.2,12471.2z"/>
	<path class="st1" d="M2358.4,12427.4c-116.9-0.4-212.2,6.5-297.2,19.7l-124.4,20.2l-49.7-27.7c-27-14.5-75.4-35.3-106.4-43.9
		l-56.9-17.2l-5.9-67c-10.6-138.3-112.3-337.5-297.6-583.7c-227.7-301.6-483.8-562.5-704.1-715.1c-68.5-47.7-126.6-94.2-128-102
		c-1.6-8.9,7.7-30.8,21.6-49.6c31.5-45.3,31.6-96.1,0.1-141.2c-13.5-18.9-22.9-42.6-21.3-51c8.5-43.2,194.9-182.2,345.1-256.9
		c140.9-69.9,391.1-142.2,433.9-124.4c6.6,2.9,23.7,30.3,37.2,60.4c29.5,62.8,77.4,103,145.8,122.2c51.3,14.2,111.7,5.4,143.6-20.6
		c12.4-10.3,29-19.4,37.7-22c9.8-1.8,69.1,45.5,143.4,114.5c208,191.3,260,249.1,332.7,371.2c19,32.2,67.2,102.8,108.3,156.4
		c40.3,54.8,84.1,118,97.4,141c35.2,65.8,229.8,528.8,265.6,632.1c43.1,127.4,96.2,316,99.7,358c2.1,34.2,0.3,35.5-42.2,48.2
		c-56.8,17.3-70.9,35.1-87.8,105.1l-14.5,55.4l-51.4,8.2C2554.7,12422.8,2453.8,12426.6,2358.4,12427.4z M2566.8,12314.9
		c-4.4-24.6,60.4-116.5,92.3-131.3c23.4-11.3,28.2-18.3,22.7-37.6c-66.9-231.8-136.5-427.6-221-615.7
		c-10.1-22.6-100.1-48.1-217.1-60.7c-73.6-8.2-70.6-8.7-72.2,28.2c-1.9,46.1-47.8,113.2-101.5,148.2
		c-116.1,77.7-348.5,130.5-497.6,114.5c-13.3-0.7-0.7,24.5,51.6,106.6c92.2,146,149.3,271.9,166.4,367.4
		c12.5,69.9,15.9,77.4,38.2,82.6c12.9,3.8,47.1,19,77.2,33.9c52.6,27.1,53.6,27,149.3,10.9c57.1-10.2,164.4-18.3,267.9-18.5
		C2527.9,12341.2,2570.6,12335.6,2566.8,12314.9z M1799.3,11660c-0.5-3-16.7-8.2-36.8-12.7c-38.1-8.4-75.2-45.5-83.2-84.7
		c-2.3-12.8-15.5-40.9-28.7-63.9c-24.5-40.3-26.6-40.9-68-33.5c-30.5,5.5-47.1,3.4-57.1-7c-20.3-22.8-6.7-48.6,43.4-80.9
		c39.2-25.3,43.1-26,69.5-14.5c36.2,14.9,85.7,81.2,113.3,150.4c21.5,52,22.8,53.8,59.3,53.4c41.6-0.3,93.9-26,81.2-39.9
		c-3.8-4.4-4.3-18.5-0.4-30.4c7.9-23.8,43.5-35.2,65.5-19.9c19.7,13.7,28.7,75.1,14.8,105c-7.8,18.7-7.9,23.8,1.9,22
		c23.4-5.2,85-52.8,100.7-79c22.9-36.6,7.5-111.1-28.2-146.3c-32.9-30.7-40.4-60.8-19-77.9c8-6.5,48.4-24.9,88.9-42.3
		c83.3-34.2,106.2-31.2,109.3,15c1.7,21-5.7,30.5-42.2,48.2c-48.4,24.9-54.7,46.4-15.8,53.6c52.7,10.9,230.9,29.8,234.1,25.1
		c10.5-15.1-80.6-177.6-168.5-300c-55.3-76.4-111.9-159.8-126.4-183.6c-13.4-24-29.5-45.5-34-47.8c-21.8-8.3-117.9,243.6-110,287.9
		c3.9,21.7-34.3,35.6-88.9,31.2c-221.5-17.2-456.1,165-456.9,353.1c0.2,69.1,70.2,125.6,165.2,134
		C1645.5,11680.4,1801.1,11669.8,1799.3,11660z M1352.5,11428.2c29.9-99.8,138.5-213.8,259.7-274.1c58.8-28.8,192.6-58.9,242.2-54.6
		c26.8,2.3,29.3-1.2,39.6-45.7c14.2-62.5,53.4-155.8,88.8-213l29.2-46.9l-26.7-29.8c-15-15.6-76.4-74.7-137-129.9
		c-76.5-69.6-115.3-99.2-126.6-94.2c-8.5,3.6-43.6,11.9-78.8,19.2c-53.2,9.5-73.5,9.1-121.1-6.8c-79.1-27.5-155.8-86.9-180.6-140.4
		c-10.3-23.6-22.9-42.6-26.8-41.9c-54.1,9.7-227.7,67.2-298.2,99.1c-104.3,47.1-156.7,77.9-254.3,151.2l-69.9,52.1l16.1,67.2
		c12.5,52.6,12.4,75,2.1,108.3l-13.6,43.1l96.7,69c142.3,102.5,342.7,291.1,489.8,459.9c26.7,29.8,49.3,54.2,52.3,53.6
		C1337.2,11473.5,1344.7,11452.9,1352.5,11428.2z"/>
	<path class="st1" d="M2137,12269c-80.5-24.2-131.7-83.1-146.3-164.8c-11.6-65-6.2-102.5,22.7-145.3c75.1-114,287-48.4,314,97.1
		c13,72.8-34.1,172.7-95.9,202.1C2187.6,12279.2,2174.8,12281.5,2137,12269z M2225.8,12146.4c35.6-62.2,7.4-134.4-62.4-155.4
		c-41.9-12.8-65.4-7.6-82,18.7c-33.2,52.7,4.8,151.5,64.9,169.2C2187,12190.9,2204.2,12184.8,2225.8,12146.4z"/>
	<path class="st1" d="M1296.1,11119.2c-77.4-6.5-118-23.6-144.7-59.4c-65.3-86.8-26.4-238.1,77.4-305.4c16.3-11,58.6-24.7,94-31.1
		c111.1-20.9,233.4,32.4,246.9,108.2c14.5,80.7-33.5,181.8-112.7,238.6C1393.1,11116.1,1362.1,11124.7,1296.1,11119.2z
		 M1383.3,11016.3c22.4-11.1,52.8-39.9,73-68.9c27.5-39.5,32.5-56.6,27.6-84.2c-5.1-28.5-12.8-37.3-41.2-48.5
		c-125.5-48.6-259.9,46.5-230.8,163.3c10.7,42.8,11.9,43.6,63.1,51.7C1338.7,11039.5,1335.8,11040,1383.3,11016.3z"/>
	<path class="st1" d="M5625,12119c-71-5-215-21-320-35c-104-15-210-29-235-31s-54-8-65-13s-83-23-160-40c-149-34-451-122-491-143
		c-13-7-90-78-171-157c-81-80-194-184-251-230c-98-81-103-87-100-119c3-31,12-41,83-92c264-187,423-495,425-825c0-77,9-80,129-39
		c240,82,532,130,568,94c9-9,19-9,42,1c32,13,56,11,241-17c58-8,116-22,128-30c14-9,34-12,48-9c68,18,572-147,698-228
		c66-42,136-112,136-135c0-43,72-57,105-21c10,11,25,20,34,20s84,58,166,128c204,175,203,172,215,547c5,164,14,289,24,340
		c20,98,41,401,40,550c-2,109-23,222-59,307c-15,38-36,48-195,92C6392,12107,5960,12143,5625,12119z M6235,12035
		c184-20,475-79,475-96c0-3-43-39-96-79l-96-73l-82,26c-44,15-112,34-151,42c-80,17-336,20-364,5c-26-13-33-37-16-54
		c11-11,37-13,123-8c121,5,238-8,341-40c36-11,68-22,70-24s-27-37-65-77c-39-39-77-82-85-94l-16-23l-69,20c-192,56-377,86-629,102
		l-192,12l60,91l61,92l161-1c157-1,160-1,163,21c6,40-31,53-156,53h-114l17,28c10,15,30,41,44,59l26,32h230
		C6015,12050,6156,12044,6235,12035z M5534,12028c-5-7-59-87-121-177s-113-168-113-172s-64-10-142-14c-79-4-186-11-238-15
		c-52-5-96-7-98-6c-1,2,25,38,58,81c34,42,86,114,116,160c52,79,57,84,102,94c43,9,300,45,382,54c19,2,41,5,48,5
		C5536,12039,5538,12035,5534,12028z M4933,11919c-10-17-52-74-94-127s-84-112-93-129c-9-18-20-33-25-33c-4,0-59-9-122-20
		c-157-28-324-72-460-119l-114-40l69,62c38,34,83,67,100,73c17,7,78,30,136,52s157,51,219,64c124,25,151,42,118,75
		c-15,15-24,16-94,4c-68-11-197-45-258-67c-14-5-7,6,19,34c35,36,55,46,168,83c107,34,411,116,441,118
		C4948,11950,4943,11936,4933,11919z M6840,11687c5-50,8-93,6-96s-9-94-16-201s-23-262-36-345c-19-121-24-187-24-346
		c0-251-13-303-90-368c-28-24-53-41-56-39c-2,3,1,61,7,129c15,165,15,473,0,579c-14,100-48,239-63,257c-13,17-43,17-56,0
		c-8-9-5-32,9-81c51-185,62-441,34-778c-12-138-20-187-32-200c-9-10-19-18-22-18s-7,91-9,203c-5,367-28,626-72,813
		c-19,81-69,235-89,271c-9,17-2,30,43,85c50,61,122,128,137,128c12,0,57-124,82-230c32-131,48-238,52-345c3-92,7-105,35-105
		c34,0,43,36,37,145c-11,176-70,432-123,538c-22,42-23,50-11,60c8,7,54,41,101,77c47,35,89,73,93,85
		C6787,11937,6829,11794,6840,11687z M5695,11579c234-20,537-87,560-123c23-34,83-226,105-330c36-174,52-383,53-698
		c1-163-1-299-4-303c-4-3-38,24-75,62c-53,53-91,80-164,116c-105,52-403,153-550,187c-113,26-121,29-131,58c-11,29-2,29,142-7
		c176-44,303-87,418-142c56-28,109-48,117-45s18,16,23,29c15,40,59,67,106,67c23,0,47,6,53,13c21,25,35,179,29,316
		c-6,140-35,283-77,379l-19,42l-68-2c-61-3-72,0-112,27c-66,45-86,77-84,136c1,59,17,50-192,113c-198,60-226,65-320,66
		c-122,0-155,8-155,35c0,22,1,23,113,18C5524,11591,5629,11585,5695,11579z M5274,11558c3-18,10-114,16-213c19-321,59-596,108-752
		l20-63l-22,5c-51,12-225,35-268,35h-47l-30,98c-98,324-172,579-221,766c-17,65-28,121-25,125c10,10,221,28,347,30l117,1L5274,11558
		z M4730,11535c0-9-14-17-37-21c-166-28-421-90-440-106c-9-7-11-26-7-63c6-50,5-54-30-92c-20-22-36-47-36-54c0-8,45-93,100-189
		c85-148,128-239,154-322c3-10,21-24,40-32s55-33,80-57l46-42l58,26c31,14,84,30,116,36c68,13,216,15,216,4c0-5,3-18,6-30
		c6-22,4-23-52-23c-101,0-251-29-421-80c-56-16-104-30-106-30s-7,36-11,79c-14,177-83,366-188,518c-56,81-170,201-231,243
		c-20,14-37,28-37,31c0,10,182,83,290,117c52,16,147,41,210,56C4667,11553,4730,11560,4730,11535z M5550,11463c-1-19-99-149-137-180
		l-41-34l-6,68c-4,37-8,87-10,111l-4,42h99C5506,11470,5550,11467,5550,11463z M4756,11423c4-16,51-181,105-368
		c53-187,96-341,96-342c-1,0-51-6-112-12c-60-6-138-20-172-32l-61-20l-47,35c-26,20-50,36-54,36s-20,33-35,73c-16,39-56,119-89,177
		c-34,58-76,132-94,166l-33,61l21,19c27,24,49,75,49,113c0,25,5,32,28,37c15,3,61,15,102,25c59,16,239,52,282,58
		C4746,11450,4753,11438,4756,11423z M5795,11407l139-44l8-37c11-54,32-88,78-130c55-50,114-76,172-76h47l20-67
		c37-128,45-188,46-328c0-181-2-189-61-205c-26-8-61-27-79-45l-32-32l-35,18c-110,56-340,130-533,170c-59,13-109,28-112,35
		c-2,7,7,30,21,51c84,122,86,341,6,471l-21,34l51,55c28,30,65,81,83,114c17,32,39,59,47,59S5718,11431,5795,11407z M5442,11100
		c29-74,31-216,4-275l-19-40l-8,40c-8,40-34,246-44,340l-5,50l25-30C5409,11169,5430,11130,5442,11100z"/>
	<path class="st1" d="M4550,11128c-119-60-114-219,8-259c46-15,127-6,160,18c37,28,72,81,72,111c0,44-46,108-93,131
		C4642,11156,4605,11156,4550,11128z M4690,11041c46-46,18-98-59-108c-35-5-44-2-71,25c-21,21-28,36-23,49
		C4561,11075,4639,11092,4690,11041z"/>
	<path class="st1" d="M5741,11075c-47-42-71-105-71-182c0-60,31-117,90-167c37-31,70-32,125-7c112,50,147,188,77,300
		c-37,61-83,91-138,91C5788,11110,5773,11104,5741,11075z M5877,11008c81-84,58-202-44-232c-17-6-28,2-57,40c-40,53-46,91-21,151
		C5789,11048,5827,11060,5877,11008z"/>
	<path class="st1" d="M760.4,1992.9c-41-37.7-121.5-117.5-179-177.2c-56.4-59.8-114.6-119.9-128.9-133.3s-29.2-31.2-33.5-39.5
		c-4.3-8.4-39.8-54.3-78.8-102.1c-74.9-93.1-217.6-293.2-232-325.3c-4.6-10.5-17.8-90.6-29.6-177.5C67.3,950.6,47.8,833.2,35,777.8
		c-21.2-96.3-21.4-102.4-4.3-120.1c16.6-17.1,26.9-18.7,94.7-14.6c250.9,16.9,495.3-89.9,654.2-286.5c36.8-46.1,43.7-43.5,97.5,39.6
		c107.6,166.3,263.3,337.6,302.5,333.6c9.8-1,15.9,3.9,25.2,21.1c13.4,23.4,29,33.9,155.5,107.5c39.3,23.5,81.5,43.5,92.6,44.5
		c12.9,1.4,26.5,9.4,33.7,18c33,44,420.1,191.2,535.9,204.2c60.4,7.1,136.7-0.7,147.7-14.4c20.5-25.7,71.3,1,74.3,38.7
		c0.9,11.5,5.7,24.2,11.2,28.6s23.7,75.7,40.4,157.7c41.2,204.4,42,202.1-129.9,432.5c-75.3,100.6-129.5,179.9-147.8,215.3
		c-34.6,68.4-166.5,260.1-238.4,348.8c-53.3,64.3-120.2,121.7-182.8,155c-27.3,15.4-45,11.2-163.2-40.1
		C1235.4,2360.2,953.9,2170.9,760.4,1992.9z M1173.7,2240.5c122.1,77.9,328.3,184.6,336.4,174.4c1.4-1.8-7.7-44.3-21-94.2
		l-23.8-90.6l-62.6-24.5c-34.1-12.5-84.8-34.3-112.4-48.6c-57.1-28.9-215.1-152.1-225.1-174.7c-9.7-20.5-2.5-38.3,16-40.1
		c12-1.2,28.8,10.3,79.1,55.3c71.6,62.1,149.4,111.4,227.7,142.5c27.3,11,52.1,20,54.3,19.8c2.2-0.2,1.2-35.3-3-77.8
		c-5.2-42.4-7.9-86.7-7.1-97.8l1.2-21.6l-51.8-21.7c-144.2-60.2-271.7-132.6-433.5-246l-123.2-86.5l-6.8,83.8l-6.6,84.9l99,78
		c96.5,76,98.4,77.5,89.7,92.2c-15.4,26.9-44.3,16.6-120.8-44.4l-69.7-55.7l-3,25.1c-1.1,13.9-1.2,39.2-1.3,56.8l0.6,31.9
		l140.7,112.3C1032,2142,1121.1,2207.3,1173.7,2240.5z M748.3,1894c0.3-6.6,5.5-80.9,10.6-165.1s11.2-155.8,13.1-158.2
		c1.9-2.4-34.4-37.2-80.2-77.7c-46.4-41-108.5-97.4-138.4-125.2c-29.4-28.4-55.4-51.1-57.1-51.4c-1.6,0.7-2.9,35-3.2,76.8
		c0.7,41.7-1.9,110.2-5.5,152.4c-5.9,72.7-5.3,78.1,17.5,106.1c22,26.4,162,173.4,207.9,218.8c10.7,10.5,22.7,23,27,26.4
		C744.2,1901.6,747.4,1900.2,748.3,1894z M432.7,1535.4c2-15.1,3.6-69.7,3.2-121.9c-0.4-52.2,2.1-108.1,4.8-122.6
		c3.1-15.2,3.5-29.5,0.5-32c-2.4-2-31.8-34.2-65.1-71.5c-82.7-93.4-163.8-201.3-224.5-295.8L101,812l12.6,70.8
		c7,38.9,18.8,80.6,26.3,92.5c7.1,12.5,33.4,56,58.3,97.5c25,41.5,71.7,107.2,103.4,145.2c63.9,75.5,72.3,98.9,36.3,102.5
		c-16.3,1.7-22.3-2.1-59.4-43.5c-36.3-39.8-99-123.1-125.8-166.1c-6.2-9.8-7.1,0.2-4.6,29.6c4.2,38.6,11.7,54.4,63.1,131.7
		c49.2,72.6,196,270.1,213.4,285.9C427.1,1561.2,430.7,1550.4,432.7,1535.4z M1710.1,2327.4c27-27.5,49.3-51.8,49.5-54.6
		s39.4-60.7,86.3-128.2s111.1-168.1,142.8-224.1c46.2-81.7,74.7-123.7,150.7-218.9c119.9-150.3,136.8-187.8,120.8-264.3
		c-5.7-28-12.8-50.4-15.6-50.7c-2.7,0.8-28.5,37-57.4,80.7c-69.7,106.1-216.9,290.5-276.7,346.7c-56.3,53-143.6,119.7-161.3,123.1
		c-16.1,3.8-34.4-10.8-34.3-27.3c-0.6-9.3,12.2-21.6,44.2-44.1c119.6-85.9,248.7-233.8,392.6-449.2c58.6-88.5,77.1-121.7,76-135.4
		c-0.7-10.4-3-20.1-4.9-21.5c-1.8-1.5-47.8,51.1-102.5,117.2c-178.4,217.3-316.3,361.1-432.5,451.6
		c-50.3,39.2-154.5,107-183.9,118.8c-13.6,5.8-15.6,17-14.3,71.9c1.4,60.9,13.5,136.2,22.6,143.5c7.3,5.9,94.1-46.4,160.1-97.7
		c82.2-62.8,143.1-119.1,196.7-181.2c45.8-53.6,54.5-59.5,71.6-45.8c20.8,16.6,9.1,42.5-46.7,104.9
		c-90.8,100-249.3,224.5-332.3,262.1c-33.5,14.4-38,18.7-35.4,30.6c1.5,8.1,13.4,50.9,25,95.4c12,43.9,19.6,87.2,16.3,96.3
		C1558.2,2451.3,1652.2,2386.1,1710.1,2327.4z M1061.3,1703.8c152.7,102.3,370.1,210.1,401.3,199.7c30.3-9.1,158.8-94.8,221.9-146.3
		c105.2-86.6,214.8-203.9,366-392.1c78.5-97.1,142.3-179.5,142.3-183.4c-1-3.7-34.7-4.2-75.5,0.5c-57.7,5.9-93.9,3.5-155.8-10.6
		c-89.1-20.1-319.6-105.1-425.8-156.5c-81.5-39.6-87.9-41.7-107.8-29.2c-20.6,12-15.1,16.4,90.2,65.1
		c128.7,59.6,226.9,95.8,323.6,119c47.6,10.6,89.6,24.5,93.1,30.2s3.4,18.4,0.2,28.6c-9.9,31.3,4.1,68.9,32.8,91.9
		c14.1,11.2,25.9,26.5,26.2,33.7c0.9,25.2-64.1,124.3-133.3,203.4c-70.6,80.9-156.6,152.4-228.2,189.3l-31.7,15.9l-40.6-34.4
		c-35.9-31.6-44-35.2-81.4-38.5c-61.9-5.3-89.4,4.1-116.4,40.4c-27.6,35.8-13.5,38.2-171.4-26.1c-149.8-60.7-169.3-71.4-227.3-116.7
		c-74.6-59.6-98.6-70.9-111.5-54.7c-10.5,13.2-10.4,14.3,60.5,65.9C951,1627.5,1018.1,1675.2,1061.3,1703.8z M813.8,1485.7
		c10.4-9.3,60.6-63.4,111.6-119.7c165-182.9,320.9-328.1,425.4-397.5l42.3-28l-15.8-7.7c-36.9-17.7-154.4-88.9-180.7-109.9
		l-28.8-22.9l-65.2,44c-214.8,146.2-381.9,262.7-501.2,350.8c-41.5,30.6-74.9,58.8-75,62.6c1.3,10.9,121.8,124.7,197.9,187.4
		l71.1,57.7L813.8,1485.7z M492,1206.3c4.3-5.4-0.4-17-12.6-30.6c-88.2-97.8-214.5-259.4-218.5-278.3c-2.2-8.6,5.7-20.9,25.8-41.1
		c27.6-27,28.9-29.9,25.6-69.7c-1.7-22.9,0.4-45.7,3.8-49.9c3.8-4.8,72-33.7,151.5-64.3c122.7-47.1,192.5-80.6,248.1-117.6
		c6.6-4.5,24.3-4.1,39.8,0.4c15.4,4.5,49.4,7.1,76.2,4.9l48.2-2.7l23.1,43.9c12.3,23.5,37,59,53.8,78.2
		c35.4,41,125,114.4,130.2,107.8c2.4-3,10.4-9.3,18-15c14.2-10.2,13.4-11.8-20.8-39.2c-61.8-49.3-139.7-139.9-219.3-253.4
		c-26.6-36.9-49.3-68.7-50.5-69.7s-21.5,18.1-44.5,41.9C676.8,551,544.2,630.5,407.4,670.3c-73,21.2-200,37.4-257.4,32.7
		c-18.9-1.4-36-1.3-37.4,0.5c-4.8,6,71.7,138.5,121.5,211.6c24.2,35,70.3,96.3,101.7,136.1C444.9,1186.4,480.1,1221.3,492,1206.3z
		 M1028,1563.5c8.5-11.9,10.6-137.5,2.2-174.7l-8.8-40.4l-36.2,37.8c-20.1,20.2-46.5,48.2-59.2,61.6l-22.5,23.2l60.6,48.3
		C997.8,1546.3,1026.1,1565.9,1028,1563.5z M561.5,1152c10.1-7.6,117.7-83.5,240.1-169.1c121.8-86.1,221.7-157.3,222.2-157.9
		c-0.6-0.5-28.3-28.5-62.8-61.9c-33.8-32.9-74.9-79.3-89.9-103.1l-27.8-41.8l-45.5-2c-25.5-0.7-47.8-2.9-50.2-4.8
		c-2.4-2-28,10-56.3,26.6c-28.4,15.5-91.1,43.9-139,62.5c-48.5,18.1-109.6,41.9-136.8,53.5L366,774.5l3.8,21.6
		c5,27.6-5.9,68.8-24,91.6c-11.9,15-12.2,21.6-0.6,35.8c7.7,9.1,30.1,38.8,50.4,64.8c28.4,38.4,121.3,147.8,144.8,172.4
		C542.4,1163.3,552.5,1159.5,561.5,1152z M1204.7,1649.6l106.1,41.5l22.6-18.2c32.5-27,61.6-37.1,109.8-39.8
		c57.5-3.1,106.1,10.1,141.5,38.5l28.8,22.9l44.3-30.4c83.8-58.6,117.4-90.6,184.9-173.9c86.5-108.4,89.1-114.1,60.6-152.5
		c-12.1-17.5-24.4-45.9-26.8-65.5l-4.3-34.8l-30-6.3c-94-20.2-270.1-88.2-407.3-158.4c-42.3-21-80.1-36.4-85.2-33.7
		c-4.6,3.2-10.1,21.4-11.5,40.8c-6.9,114.1-110.3,246.2-221.4,284.9l-29.1,10.1l4.9,57.8c2.8,31.6,1.1,80.2-3.7,108.8
		c-4.9,27.5-4.3,54.4,0.6,58.3C1094.2,1603.6,1146.1,1626.4,1204.7,1649.6z M1135.4,1293.5c53.1-30.1,122.2-114.2,133.9-162.7
		l7.5-33.2l-24,20c-24,20-138.4,130.7-189.4,182.1l-27,27.5l29.6-5.8C1082.3,1318.7,1113.8,1305.6,1135.4,1293.5z"/>
	<path class="st1" d="M576.4,874.8c-44.1-94,34.9-186.8,128.7-151.2c35.3,13.5,80.6,58.4,89.3,88.9c9.3,34.8,5.3,83.6-9,101.6
		c-21,26.3-79.7,42.2-119.5,33C619.3,936.4,596.7,918.4,576.4,874.8z M703.6,891c50.1-5.1,57.8-49.9,15.5-93.5
		c-19-20.1-26-22.7-55.4-19.7c-22.9,2.3-34.3,7.9-37.5,18.1C608.5,848.4,648.1,896.7,703.6,891z"/>
	<path class="st1" d="M1330.3,1424.5c-8.7-48.1,6.7-97.5,43.5-143.6c28.7-35.9,74.9-54.9,134.9-56.1c37.4-0.5,58.1,15,79.8,56.8
		c44.6,84.6,0.1,184.3-96.3,217.2c-51.8,18.5-94.3,14-127.9-12.9C1342.3,1468.4,1336,1457.5,1330.3,1424.5z M1445.5,1450.8
		c89.7-10.8,132-92.6,83.9-160.4c-7.5-11.9-18.1-12.5-54-3.9c-49.8,12.2-71.6,32-85,80.2C1372.6,1431.7,1390.1,1457.5,1445.5,1450.8
		z"/>
	<path class="st1" d="M8402.4,12046.9c-7-5-26-47-42-95c-102-302-318-544-604-677c-45-21-121-50-169-65c-112-34-116-43-50-133
		c184-249,308-508,360-753c12-52,31-173,44-269c20-152,23-214,22-470c-1-318-12-440-49-558c-27-84-81-179-107-188c-23-7-34-49-22-82
		c5-15,28-35,54-50c80-43,172-23,685,145c401,131,658,257,860,421l60,48l-1,190c-1,330-65,673-206,1104c-187,576-447,1062-728,1363
		C8438.4,12053.9,8426.4,12061.9,8402.4,12046.9z M8587.4,11747.9c198-261,357-569,507-982c168-464,260-899,267-1260l3-143l-95-69
		c-234-168-458-265-1006-434c-204-63-288-85-330-85h-55l29,43c100,145,127,263,142,621c11,261,4,414-31,681c-47,353-137,598-323,879
		c-46,70-81,128-77,130c3,2,31,11,61,21c72,23,220,98,290,145c118,81,240,203,321,322c44,64,120,214,139,272l13,40l34-40
		C8495.4,11867.9,8545.4,11803.9,8587.4,11747.9z"/>
	<path class="st1" d="M8180.4,11432.9c-112-111-221-208-254-228c-39-24-59-43-63-60c-14-68-28-109-50-147c-13-23-24-44-24-46
		c0-3,21-29,46-59c97-114,187-371,225-648c5-41,17-122,25-180s17-220,21-360c6-264-3-403-32-514c-14-54-14-60,1-77
		c10-11,28-19,41-19c55,0,113-56,113-108c0-10,8-27,19-36c16-15,28-16,107-6c223,27,408,95,607,222c109,70,112,75,81,157
		c-25,66-25,66-8,130c22,82,71,137,132,147c28,4,47,14,54,27c7,14,9,100,5,271c-4,232-7,258-31,346c-15,52-35,147-46,210
		c-27,157-39,194-131,408c-110,253-223,483-311,627c-78,127-98,144-133,105c-26-29-86-27-133,5c-20,14-43,25-51,25
		C8383.4,11624.9,8288.4,11537.9,8180.4,11432.9z M8434.4,11504.9c42-21,114-26,145-10c16,9,27-6,93-118c89-152,109-190,187-367
		l60-135l-42-69c-22-38-58-89-78-112l-37-43l-36,23c-20,12-60,25-89,28c-110,11-301-84-439-218l-78-76l-17,71
		c-45,191-119,370-183,446l-27,33l23,56c12,31,23,65,23,77c0,14,17,31,53,54c28,19,131,111,227,207c96,95,175,173,175,173
		C8395.4,11524.9,8412.4,11515.9,8434.4,11504.9z M8997.4,10692.9c37-90,47-126,67-253c9-55,27-140,40-189c14-50,23-91,22-92
		c-6-6-103,23-152,45c-27,12-71,35-96,52c-51,32-71,36-91,15c-141-153-254-205-415-193c-173,13-261,113-203,232
		c25,51,138,169,191,199l34,19l-27-29c-41-44-45-82-14-149c34-74,43-125,23-125c-8,0-25-8-38-19c-21-16-22-22-11-45
		c13-30,44-34,97-12c50,21,60,46,45,120c-6,33-20,77-31,98c-10,20-19,43-19,51c0,16,34,49,68,67c21,10,26,9,39-9c27-39,73-20,73,29
		c0,33-40,73-74,73c-35,0-33,4,10,22c48,20,109,19,144-2c34-19,65-83,57-114c-8-30,9-59,34-59s164,63,174,79c4,7,4,23,1,37
		c-8,29-41,32-88,8c-25-13-32-14-39-2c-13,19-14,17,45,90c30,37,63,81,73,98c9,16,20,30,24,30S8981.4,10731.9,8997.4,10692.9z
		 M8919.4,10137.9c47-22,110-46,140-53s61-14,68-16c9-3,12-50,12-194v-190l-37-15c-121-51-194-225-148-354l14-42l-67-43
		c-163-105-351-174-548-200c-39-5-41-5-58,34c-19,43-66,87-109,103c-17,5-26,15-23,22c28,75,41,464,23,732l-8,122l43-19
		c176-77,420-27,563,117c22,22,42,39,45,38C8832.4,10179.9,8872.4,10160.9,8919.4,10137.9z"/>
	<path class="st1" d="M8249.4,11237.9c-86-29-120-76-120-166c0-105,93-207,190-207c106,0,184,149,136,263
		C8425.4,11201.9,8315.4,11260.9,8249.4,11237.9z M8351.4,11125.9c28-25,33-36,33-73c0-121-114-135-162-20c-17,40-12,68,17,100
		C8268.4,11163.9,8311.4,11161.9,8351.4,11125.9z"/>
	<path class="st1" d="M8559.4,9858.9c-62-12-92-29-133-74c-99-110-101-182-7-262c136-117,347-42,400,143c20,68-23,140-101,173
		C8678.4,9855.9,8597.4,9865.9,8559.4,9858.9z M8688.4,9756.9c63-32,66-73,9-137c-40-46-77-65-128-65c-64,0-130,43-130,85
		c0,32,56,104,93,120C8576.4,9779.9,8647.4,9777.9,8688.4,9756.9z"/>
	<path class="st1" d="M3664,10258c-278-224-543-350-865-413c-301-58-379-67-691-72c-252-5-312-3-392,12c-110,19-199,58-250,109
		c-28,29-41,36-59,30c-60-18-93-84-84-173c5-57,136-432,242-696c125-310,274-562,430-729l45-49l118,7c328,19,674,97,1059,237
		c511,187,942,418,1240,666c105,87,253,236,253,254c0,25-17,35-103,58c-202,57-372,158-518,308c-126,129-202,251-263,423
		c-29,79-41,100-60,100C3759,10330,3713,10298,3664,10258z M3754,10174c13-51,77-175,138-265c141-212,390-399,631-475l57-18l-22-24
		c-44-47-204-180-303-252c-435-315-1197-631-1755-729c-139-24-288-41-368-41c-54,0-60,3-93,38c-184,194-323,468-543,1074
		c-66,182-86,249-86,288v51l29-21c109-77,243-110,476-117c388-12,842,43,1145,139c186,59,492,227,630,347
		C3733,10206,3746,10207,3754,10174z"/>
	<path class="st1" d="M3507,9965c-102-97-333-191-596-245c-55-11-106-22-113-25c-39-14-387-56-538-65c-164-9-276-5-452,16
		c-54,6-57,6-62-17c-3-13-7-36-11-52c-8-39-54-85-100-99c-36-12-40-17-43-50c-5-55,42-245,87-359c62-154,210-388,257-406
		c8-3,43,7,78,22c71,30,105,29,182-5c54-23,82-55,98-110l13-45l184,3c236,3,352,17,457,53c47,15,140,40,206,55c67,14,159,42,206,61
		c77,32,486,237,570,286c123,72,340,222,345,238c4,13-2,30-19,50c-33,39-33,65,1,134l28,56l-75,72c-41,40-127,118-191,174
		s-142,135-172,176c-54,72-57,74-107,80c-28,4-76,18-107,32c-30,14-58,25-62,25C3568,10019,3539,9995,3507,9965z M3638,9900
		c29-11,63-20,76-20c17,0,40-20,83-73c34-41,133-137,220-215l160-141l-19-57c-16-47-17-65-9-106c6-27,11-51,11-52
		c0-13-285-186-427-258l-172-89l-63,32c-35,17-89,49-121,71l-57,39l22,29c32,44,35,123,9,203c-32,94-126,230-222,321
		c-45,42-80,78-78,79c2,2,54,17,114,35c137,41,315,127,375,181c25,22,45,40,45,41C3585,9920,3609,9911,3638,9900z M2984,9590
		c54-35,138-111,168-153l20-28l-33,20c-45,28-65,26-140-8c-99-45-111-46-129-8c-29,61-86,42-77-25c15-111,70-118,265-37
		c33,14,35,13,63-19c33-36,36-54,14-72c-34-28,2-84,46-73c27,8,59,51,59,82c0,36,15,12,36-56c13-45,13-56,1-85c-21-49-50-69-108-77
		c-78-9-82-23-34-122c43-87,63-106,95-89c25,14,25,40,0,89l-19,39l20,5c14,4,36-6,65-28c24-19,69-49,99-67s55-35,55-39
		c0-9-149-77-205-93c-28-8-87-22-133-31c-45-9-121-30-169-46c-47-16-88-27-91-24c-10,10,33,151,69,222c21,43,39,84,39,92
		s-33,45-73,82c-106,97-156,207-157,340c0,83,25,157,70,201c33,34,43,38,87,38C2924,9620,2947,9613,2984,9590z M2690,9588
		c0-2-10-28-21-58c-28-72-30-209-5-295s80-178,142-241l54-54l-24-48c-23-46-55-144-72-227l-9-40l-85-7c-47-3-133-6-191-7
		c-104-1-107,0-113,23c-9,35-82,105-134,128c-66,30-170,35-228,13c-52-20-43-27-118,85c-89,133-170,326-196,471c-11,58-10,65,6,74
		c42,24,104,89,114,120c11,32,13,34,43,27c65-14,507-6,657,12c80,10,147,20,149,22C2664,9590,2690,9592,2690,9588z"/>
	<path class="st1" d="M3631,9664c-94-47-138-153-96-234c17-33,83-75,134-84c111-20,221,75,221,192C3890,9664,3759,9727,3631,9664z
		 M3785,9575c29-28,30-34,11-80c-25-58-105-83-156-48c-53,36-53,63-1,114c32,33,45,39,80,39C3750,9600,3767,9594,3785,9575z"/>
	<path class="st1" d="M2278,9389c-44-12-86-47-115-97c-24-39-28-59-28-118c0-61,4-77,30-119c55-90,153-145,231-131
		c114,22,168,204,101,338c-15,30-41,55-83,84C2346,9391,2318,9400,2278,9389z M2360,9278c63-39,84-83,77-165c-4-64-28-103-63-103
		c-42,0-94,31-125,73c-49,68-37,164,27,212C2301,9314,2298,9315,2360,9278z"/>
	<path class="st1" d="M5366,9581c-3-5-22-51-41-102c-95-249-238-485-391-648c-100-106-353-322-489-416c-109-76-364-229-460-277
		c-123-62-191-81-285-81c-47-1-97,3-112,7c-22,7-32,3-54-19c-23-23-26-32-22-75c8-84,43-127,241-293c502-423,773-601,1063-697l95-32
		l53,32c293,178,633,500,950,899c358,451,579,853,701,1275c46,163,36,177-100,139c-82-24-108-26-280-27c-194-1-229,3-365,46
		c-105,33-268,123-368,203C5415,9585,5379,9603,5366,9581z M5449,9446c44-41,162-116,246-156c185-88,367-125,575-116
		c74,3,164,12,200,20c36,7,66,13,68,11c5-4-59-197-100-300c-250-628-896-1434-1448-1805l-88-59l-74,24c-107,37-298,133-422,215
		c-142,93-294,210-541,415c-186,154-265,232-265,259c0,7,29,11,83,12c105,2,186,23,312,83c111,53,367,204,490,289
		c201,140,477,384,588,520c115,141,235,348,308,530c18,45,35,82,38,82S5435,9459,5449,9446z"/>
	<path class="st1" d="M5532,9258c-24-10-71-22-104-26c-67-8-68-8-92-92c-21-75-76-165-167-274c-70-83-122-136-316-313
		c-237-218-675-499-835-537c-35-8-44-39-23-83c23-48,14-98-25-138c-16-17-30-39-30-50c0-49,203-256,343-349c96-64,280-154,330-163
		c31-5,36-2,70,46c45,62,69,78,138,93c74,15,122,5,162-37c19-19,41-35,50-35s36,13,59,29c24,16,110,73,192,126
		c138,89,164,111,356,303c222,222,244,250,495,652c67,107,211,379,235,443c13,37-1,63-39,70c-39,8-62,45-62,99c0,24-3,51-5,60
		c-7,22-67,40-266,79c-185,35-276,60-354,94C5578,9284,5587,9284,5532,9258z M5677,9151c44-17,171-48,282-70s206-43,211-46
		c6-4,10-18,10-33c1-40,33-105,66-131l29-22l-77-152c-43-84-121-221-175-304l-98-153h-130c-129,0-164,7-150,29c4,7,1,35-6,64
		c-30,129-263,271-513,312l-39,6l60,62c130,135,223,266,264,374c22,57,27,63,54,63c17,1,46,7,65,14C5581,9184,5588,9183,5677,9151z
		 M5245,8528c59-19,65-23,40-25c-62-7-76-14-102-56c-15-23-42-59-61-79l-35-37l-29,22c-34,25-61,15-66-25c-4-30,56-88,91-88
		c41,0,95,49,170,155c19,27,43,27,99-1c23-12,26-18,21-48c-4-28-1-36,16-45c46-25,92,34,71,92c-5,17-9,32-7,33c2,2,20-10,40-27
		c41-34,67-76,67-109c0-38-31-88-66-109c-25-15-34-27-34-46c0-21,14-35,76-75c42-28,82-50,90-50c7,0,20,10,28,22c19,27,8,49-39,78
		c-33,21-35,24-20,40c12,14,24,15,63,9c26-4,82-8,125-8c42-1,77-3,77-7c0-25-113-158-256-300c-171-170-173-171-183-145
		c-24,60-41,150-41,218c0,88-17,113-78,113c-96,0-248,83-313,172c-55,76-79,137-79,206c0,75,8,93,58,128c35,24,42,25,122,20
		C5137,8554,5206,8541,5245,8528z M4869,8233c73-145,214-248,394-287c23-6,27-11,27-42c0-49,28-177,51-237c25-62,33-54-154-173
		l-142-91l-35,23c-19,13-57,28-84,34c-98,22-241-27-291-100l-27-39l-56,25c-166,73-283,154-414,286l-98,97l25,47c19,35,25,63,25,108
		l1,61l117,57c64,31,172,93,240,137c129,85,347,245,359,264c4,7,13-16,20-50S4852,8265,4869,8233z"/>
	<path class="st1" d="M5695,9034c-111-41-174-191-119-285c66-112,274-78,323,54c25,64,9,141-37,190C5808,9050,5767,9060,5695,9034z
		 M5805,8930c9-10,17-34,18-53c2-88-110-149-168-90c-34,33-1,131,53,159C5737,8960,5785,8952,5805,8930z"/>
	<path class="st1" d="M4618,8060c-47-9-67-25-89-75c-39-85-18-186,51-256c59-59,128-84,213-76c98,9,150,61,150,149
		c0,92-69,205-146,241C4757,8061,4667,8070,4618,8060z M4775,7956c64-42,101-144,70-192c-16-25-21-26-84-22c-76,4-120,29-148,81
		c-19,38-21,103-4,136c12,22,17,23,77,18C4721,7975,4761,7965,4775,7956z"/>
	<path class="st1" d="M1007,8649c-9-5-22-7-27-4c-6,3-90-24-188-61c-160-61-181-72-224-115c-55-57-99-146-159-324
		c-24-71-65-170-91-220c-102-194-133-259-254-550c-38-91-64-225-64-326c0-80-1-79,135-174c318-222,739-395,1226-505
		c123-27,292-60,344-66c218-27,339-36,508-41l198-6l157,76c86,41,225,101,307,132c83,32,156,62,163,67c24,20,12,63-37,130
		c-187,257-239,598-137,902c35,104,33,106-117,106c-221,0-488,47-547,97c-20,17-36,22-50,18c-26-8-307,135-333,171
		c-10,13-29,24-41,24c-47,0-395,257-521,384c-75,76-133,172-141,232c-2,21-9,43-15,51C1086,8662,1033,8664,1007,8649z M1055,8533
		c30-80,92-167,168-240c94-89,282-235,420-326c84-56,107-76,107-94c0-13-4-23-10-23c-15,0-268,173-357,244c-45,37-106,93-136,126
		c-30,33-60,60-67,60c-8,0-27-12-42-27c-30-29-73-34-144-18c-31,7-33,5-67-57c-46-81-91-200-117-308c-25-104-39-323-21-344
		c6-7,33-19,59-26c105-26,171-146,126-231c-11-22-12-34-5-43c18-21,254-193,323-235c35-21,96-50,136-65c99-35,112-43,112-67
		c0-26-16-23-145,28c-211,83-447,207-602,317l-73,51v134c0,157,19,294,65,478c37,147,179,600,202,648c13,26,42,65,48,65
		C1036,8580,1045,8559,1055,8533z M917,8543c-8-13-143-440-176-553c-66-229-110-532-98-667l6-62l-57-33c-76-44-174-88-184-82
		c-4,3-8,47-8,97c0,160,31,357,77,495c28,84,25,105-14,100c-24-2-32-12-50-59c-51-130-101-486-84-607c4-29,5-54,2-56s-58-20-121-41
		c-63-20-121-41-127-47c-16-13-17,12-3,119c13,94,40,182,87,283c19,41,53,120,74,175c22,55,64,143,93,195c82,146,92,169,146,325
		c52,154,107,269,143,303c20,19,116,62,137,62c5,0-2-26-16-57c-158-354-221-551-245-766c-11-95-11-109,3-123c20-21,54-10,62,19
		c3,12,6,44,6,70c0,123,73,379,174,614c108,251,125,288,143,295C911,8551,922,8551,917,8543z M1240,8124c73-74,223-188,373-284
		c77-49,123-85,124-96c2-12-12-31-36-49c-53-42-99-104-130-177c-23-55-26-78-27-182l-1-119l-54-28c-30-15-81-50-115-77l-61-49
		l-29,20c-16,12-74,54-129,94l-101,73l4,63c3,53,0,72-21,113c-34,67-89,121-138,136c-23,6-44,18-47,26c-9,26,18,230,44,319
		c13,49,42,124,63,168l38,80l55-3c37-3,66,1,84,12c16,8,34,15,39,16C1181,8180,1210,8155,1240,8124z M2038,7744c92-44,93-45,88-77
		c-3-17-8-106-11-197c-6-146-18-358-41-672c-4-53-10-101-13-107c-7-12-155,24-347,84l-112,35l35,117c89,309,184,724,180,795
		c0,7,1,41,1,75l2,63l63-36C1917,7804,1987,7768,2038,7744z M2388,7630c102-19,379-43,395-33c11,7,9-7-15-93c-29-106-32-391-5-496
		c26-105,73-218,127-309c28-45,47-85,44-88c-11-11-430-5-524,7c-133,18-264,42-272,50c-4,4-4,12,0,19c5,8,25,7,77-3
		c95-18,401-48,420-40c10,3,15,19,15,44c0,42,20,67,77,96c17,9,34,20,37,25c6,8-7,88-49,321c-9,47-16,125-16,175c-1,88-1,90-36,129
		c-19,21-44,58-55,83l-19,44l-58-7c-67-7-166,8-261,40c-60,20-65,24-68,54l-3,32l41-15C2263,7657,2330,7641,2388,7630z M1706,7495
		c-23-113-32-154-58-250l-11-40l-13,40c-34,109,0,264,79,352c11,13,22,22,23,20C1728,7616,1718,7561,1706,7495z M2319,7504
		c54-14,122-24,162-24c60,0,68-2,74-21c4-11,19-35,34-52c25-29,29-42,34-127c4-52,20-167,37-255c16-88,30-163,30-167s-18-19-41-34
		c-27-17-47-39-58-66l-16-40l-95,7c-95,7-319,41-329,50c-2,3,1,76,7,163c6,86,17,257,23,380c11,196,14,222,28,216
		C2218,7531,2267,7517,2319,7504z M793,7116c183-121,426-244,625-316c34-13,62-24,62-25s-43-32-95-70c-90-63-97-66-114-51
		c-10,9-27,16-39,16c-27,0-145,44-175,65c-28,19-51,19-68-1c-11-13-11-20,1-41c15-26,27-31,155-74c39-13,72-25,74-26
		c6-4-24-27-75-58l-40-25l-100,31c-153,48-365,134-517,211c-163,83-368,214-347,223c8,3,62,20,119,39l104,34l56-46
		c121-98,247-164,400-208c97-28,121-24,121,17c0,23-3,25-102,53c-46,14-109,36-142,51c-66,29-204,116-230,143c-16,18-13,20,46,46
		c35,14,83,40,108,56s49,29,53,29C678,7190,732,7157,793,7116z M1604,7083c-13-49-27-98-30-111c-5-17-11-21-23-16c-9,4-45,18-81,31
		s-69,28-73,32c-13,13,71,79,148,117c39,18,73,34,77,34S1618,7131,1604,7083z M1904,6644l109-28l-26-20c-13-12-60-43-103-70
		c-43-28-102-69-131-93c-36-29-62-43-83-43c-34,0-352,63-420,82l-44,14l179,130l180,130l115-37C1743,6689,1844,6660,1904,6644z
		 M2375,6549c50-6,171-14,270-18l180-6l-82-32c-70-27-100-33-205-39c-80-4-161-2-233,7c-60,7-128,13-150,13c-38,1-40-1-40-29
		s3-30,60-42c33-7,118-16,189-19l129-7l-44-23c-38-20-59-23-149-23c-101-1-416,23-473,35c-15,3-25,10-21,15c3,5,62,47,132,93
		s135,92,145,103c17,19,19,19,110,2C2243,6569,2326,6556,2375,6549z"/>
	<path class="st1" d="M1255,7824c-108-56-145-186-86-301c57-113,198-97,271,31c41,71,45,111,21,182c-28,79-57,104-124,104
		C1308,7840,1272,7833,1255,7824z M1381,7743c33-82,19-146-41-197c-57-48-99-29-120,54c-23,87,34,170,117,170
		C1364,7770,1373,7765,1381,7743z"/>
	<path class="st1" d="M2361,7290c-79-19-124-88-102-160c53-178,306-162,314,19C2576,7240,2464,7314,2361,7290z M2460,7205
		c18-9,31-26,35-46c16-71-83-108-139-53c-31,32-36,87-8,103C2373,7224,2427,7222,2460,7205z"/>
	<path class="st1" d="M8657.6,8148.7c-4.8-5.3-23.7-41-40.8-79.4c-97.8-213.4-215.7-395.8-348.1-541.6
		c-215.8-236-649.3-524.8-1064.2-707.9c-172.5-76.5-339.6-101.2-413.6-61.1c-59.7,32.4-111.5-24-98.7-107.4
		c11.6-74.4,48.3-121.9,234-301.9c378.2-366.6,534.9-497.2,757.4-630.9c143.5-86.5,309.3-163.3,337.5-156.2
		c32,8.1,275.9,157.3,378.8,231.7c461.5,333,968.9,893.2,1251.9,1382.3c128.1,220,265.1,543.4,252.6,592.8
		c-7.1,28.1-38.1,32.7-105.1,15.8c-126-31.8-322.3-30.8-470.8,1.9c-198.7,43.7-384,140.3-525.7,272.7
		C8689.5,8165,8678.4,8172.5,8657.6,8148.7z M8776.8,7966.3c248.1-214.8,610.4-326.6,922.5-283.9c109.6,15.3,104.2,20.1,68.1-73.6
		c-105.2-269.9-266.1-543.6-488.1-828.6c-100.4-129.5-371.8-431.1-492.9-548.2c-242.5-232.4-543.7-461-741.4-560.4
		c-41.2-20.7-42.2-21-112.8,9.7c-252.5,109.6-474,276.4-877,663.6c-193,184.4-291.9,294.5-281.1,312.7c2.4,2.7,33.5,2.3,70.3-0.8
		c53.9-5,95.1-0.8,199.6,22.5c113.2,25.5,148.4,37.4,251.3,87.1c279.8,133.5,447,231.4,664.7,386.4
		c329.6,234.8,521.2,452.3,681.8,772.3c30.2,60.2,58,105.4,62.8,102.5S8741.3,7996.6,8776.8,7966.3z"/>
	<path class="st1" d="M8609.7,7741.6c-20-68-89.1-174.1-170.2-261.6c-60-64.6-281-263.8-297.5-267.9c-2.9-0.7-27.4-18.2-53-39.2
		c-235.8-189.4-662.9-430.2-846.1-476.5c-33-8.3-65-20.5-71.5-27.3c-7.3-8-6.2-32.5,2.8-72.5c13.2-56.5,12.5-61.8-14.1-99.5
		c-15-22.3-35.1-49.1-45.5-61l-18.4-21.1l38-56.4c78.6-115.3,193.8-236.8,305.8-320.9c117.6-90,294.6-186.6,325.6-178.8
		c6.8,1.7,32.4,26.7,56.1,55.4c39.7,47.1,50.3,54,101.7,66.9c31,7.8,74.4,11.6,96.8,8.9c45.1-7.2,92.2-30.4,96.9-48.8
		c1.5-5.8,13.1-19.4,25.8-28.6l22.8-16.9l186,100.6c220.4,119.6,274.2,155.8,368.6,247.7c39,37.7,108.4,97.5,153.2,132.5
		c113.8,88.5,146.7,125.7,357.1,403.6c177.8,235.6,396,576.4,388.2,607.4c-1.7,6.8-22.1,22.3-44.7,34.1
		c-46.1,23.4-58.1,50.3-57.3,133c1.3,60.2,8.4,56.8-244,125.1c-221.3,59.7-271.1,77-348.8,119.3c-56.3,31.2-56.6,32.1-132.5,14
		c-41-9.3-96.5-18.2-121.7-20.4l-46.6-3.5L8609.7,7741.6z M8822.9,7726.3c20.6,8.3,42.4,3.5,103.1-24.5
		c75.7-34.5,160.9-61.5,394.1-123.3l111.9-30.6l-0.6-38.3c-1.4-47.8,26.2-112,57-136.2l24.3-18.6l-96.4-157.4
		c-53.4-86.7-141.2-217.1-195.8-290.7l-99.6-132.4l-73.2,0.1c-40.3,0.2-103.6,5.8-140.2,12.1l-66,12.2l4,45.4
		c7.1,90.5-56.7,175.5-201.2,265.9c-84.5,52.9-183.6,93.9-272.1,113.9l-57.8,12.2l81.3,78.3c142.3,134.9,240.5,256.6,276.2,344
		l21.2,50.7l52.6,4C8774.2,7715.1,8808.9,7720.7,8822.9,7726.3z M8342,7143c57.8-12.2,199.7-64.1,201.9-72.8
		c0.5-1.9-13.1-1.2-31.8,3.3c-17.5,3.8-41.5,5-54.1,1.8c-22.3-5.6-32.2-15.3-107.5-101.4c-24-27.7-47.9-51.3-53.7-52.7
		c-5.8-1.5-18.2,6.8-27.4,18.9c-19.7,24.9-58.7,20.2-72.3-7.9c-19.1-38.8,59.7-113.9,106.2-102.1c35.6,10,87,51.9,133.2,109.9
		c42.8,55.1,63.2,60.3,117.1,26.4c33-20.5,33.5-22.5,24.1-50.6c-10.4-28.4-9.6-31.3,11.3-44.6c28.7-19.6,43-14.9,67.9,21.2
		c16.2,21.6,19.1,38.8,12.7,64.1c-6.9,27.1-5.4,33.7,5.3,28.1c24.5-11.3,75.1-77,82.5-106.1c13.2-52.4-26.9-126.4-75.4-138.7
		c-23.3-5.9-37-28.9-31.2-52.2c6.6-26.2,142.2-126.1,162.5-120.9c44.6,11.3,41.1,57.8-6.5,95.3c-18,14-32.8,27.8-33.5,30.7
		c-4.4,17.5,33.4,22.9,91.9,11.8c37.6-6,94.1-13.4,125.7-15.7l56.8-4.2l-25.9-36.4c-51.3-70.7-117.8-138-202.3-203.7
		c-46.7-35.5-116-96.3-154.2-132.8c-37-37.2-70.4-68.3-74.3-69.3c-12.6-3.2-42.6,193.5-39.1,257.2c2.1,36.6,0.6,71.3-4.3,78.3
		c-4.9,7-39.8,18.8-77.9,26.8c-86.1,18.5-203,89.1-256,156.1c-103.8,129.5-126.8,298-48.8,361C8200.9,7150.6,8270.9,7159,8342,7143z
		 M8030.7,6991.2c-0.1-48.5,31.1-152,65-208.4c69.4-119.7,203.5-226.1,320-254.5c36.4-9.4,51-18.1,49.5-28.8
		c-4.8-42.5,8.6-173.2,25.5-240.1l19.1-75.6l-64.9-37c-35.8-21.4-108.3-61.4-161.1-89.1l-96.4-51.1l-60.2,34.3
		c-72.4,41.6-132.3,46-233.8,19.4c-60.8-16.4-75.4-24.2-111.2-62.1l-41.9-42.5l-59.7,28.2c-134,65.2-318.2,218.8-421.1,352.7
		l-52,67.3l29.2,47.6c19.6,32.8,28.7,66,30.8,102.7c1.6,55.1,1.6,55.1,45.7,72.4c199,78,432.7,202,620.2,329.7
		c45.8,31.1,86.2,58.9,91.1,60.1C8028,7018.3,8030.9,7006.7,8030.7,6991.2z"/>
	<path class="st1" d="M8901.4,7558.4c-45.5-28-85.2-83.4-99.4-137.5c-34.9-135.7,59.4-223.2,201-187.5c47.5,12,65.7,21.7,92.3,51.1
		c112,120.1,26.9,322.4-124.6,297.6C8946.9,7578.2,8915.7,7567.2,8901.4,7558.4z M9035,7482.8c32.6-26.9,35.8-76.6,9-121.5
		c-27.5-46.1-63.9-61.5-117.5-49.2c-27.4,6.5-34.5,14-41.6,42.1s-3.3,45.6,20.2,83.5c26.6,45.9,31.9,49.3,70.9,54
		C8999,7494.4,9026,7489.8,9035,7482.8z"/>
	<path class="st1" d="M7739.4,6657.8c-71.4-64.4-74.5-203.4-8.1-290.8c61-78.4,180-120.6,276-96.4c47.5,12,87.2,55,100.4,108.9
		c16.3,66-13,161.7-68.4,226.1c-44.7,50.6-79,67.7-153.2,75.8C7798,6691.1,7770.4,6686.2,7739.4,6657.8z M7900.4,6592.2
		c36.9-7.2,54.1-18.3,77.2-48.6c39.2-48.9,59.5-125.3,42.5-156.3c-27.3-51.2-139.1-45.4-200.6,10.2
		c-45.2,40.2-62.6,117.3-38.9,166.5C7801.1,6605.3,7815.7,6609,7900.4,6592.2z"/>
	<path class="st1" d="M5285,6859c-430-47-925-188-1400-398c-344-153-670-360-868-552c-98-94-96-104,24-143c356-115,637-396,743-742
		c15-49,31-96,35-104c16-30,47-21,121,35c101,76,227,153,346,213c227,113,397,157,763,197c216,24,722,17,857-13
		c112-24,197-64,247-114c55-56,106-47,144,25c34,64,22,139-60,402c-198,629-306,869-503,1122l-65,83l-152-1
		C5433,6868,5329,6863,5285,6859z M5677,6720c114-142,242-388,336-651c71-197,208-639,214-691c3-26,3-54-1-63c-5-15-10-14-36,9
		c-69,58-194,103-345,126c-118,18-566,24-711,11c-303-29-515-68-674-123c-130-45-321-143-458-235c-106-70-125-80-129-64
		c-12,48-74,186-113,255c-128,223-360,425-595,518c-47,18-85,36-85,40c0,14,210,175,338,259c569,374,1551,685,2132,675l74-1
		L5677,6720z"/>
	<path class="st1" d="M5080,6639c-247-6-271-8-355-33c-49-14-142-35-206-46c-143-25-172-35-439-152c-267-118-349-159-520-260
		c-187-111-199-123-160-168c34-39,34-58-1-126c-39-77-59-45,181-284c97-96,194-202,216-234c38-58,41-60,104-76c36-8,83-26,103-38
		c21-12,43-22,49-22s32,20,58,44c55,51,130,91,250,134c101,35,286,80,379,92c36,5,111,15,166,24c307,47,724,47,904,1
		c64-16,91-7,91,31c0,55,59,124,106,124c45,0,57,26,49,109c-20,217-127,490-263,673c-41,55-53,57-131,27c-46-17-61-19-103-10
		c-27,6-62,18-77,26c-37,19-79,69-87,103c-12,54-15,60-32,63C5353,6643,5226,6642,5080,6639z M5315,6538c37-126,242-217,367-164
		l36,16l50-78c93-145,149-282,181-439c27-132,27-138-8-153c-38-15-91-68-107-106l-13-30l-88,14c-110,17-517,19-662,3
		c-57-7-105-11-107-9c-2,3,6,29,17,59c64,166,17,387-114,534l-53,59l22,41c33,58,71,163,79,217c5,31,13,48,24,51c9,3,96,5,193,6
		C5307,6560,5309,6560,5315,6538z M4823,6484c-18-69-53-150-87-201c-14-20-26-44-26-52s28-42,63-76c100-97,148-205,148-335
		c1-195-100-301-228-239c-49,24-171,137-193,180c-13,23-12,24,7,7c35-32,72-32,155,1c93,38,106,38,114,6c14-57,84-52,84,6
		c0,49-25,97-55,105c-33,8-127-12-177-37c-51-26-61-24-97,16c-36,42-37,49-11,75c12,12,17,26,13,37c-21,58-97,34-118-37
		c-8-25-8-25-21,10c-41,113,14,200,125,200c58,0,62,25,17,126c-33,76-36,79-68,79c-28,0-33-4-36-27c-2-15,4-41,13-59
		c14-26,15-33,3-40c-20-13-20-13-87,41c-35,28-81,61-102,73s-39,25-39,28c0,13,182,79,258,93c45,9,117,23,160,31c44,8,97,21,118,29
		s49,15,61,15C4838,6540,4838,6539,4823,6484z M4288,6219c28-22,52-42,52-44s-9-22-21-45c-30-57-34-108-14-176
		c35-120,112-243,221-351l72-71l-92-22c-180-44-360-119-429-179l-34-30l-59,24c-32,14-66,25-76,25c-9,0-39,31-67,69
		c-29,38-124,139-211,224l-160,153l20,39c21,42,26,108,11,148c-9,23-3,28,131,108c78,45,217,117,310,160l169,77l62-35
		C4207,6274,4259,6241,4288,6219z"/>
	<path class="st1" d="M5219,6217c-75-49-103-180-65-295c14-43,28-60,70-92c73-55,116-72,156-60c52,15,100,59,126,114
		c43,93,28,187-43,266C5385,6237,5288,6263,5219,6217z M5370,6121c19-16,44-43,54-61c37-63,18-157-40-195c-26-17-29-17-61,1
		c-48,25-91,77-99,119c-17,91,29,184,84,170C5323,6152,5351,6136,5370,6121z"/>
	<path class="st1" d="M3885,5865c-79-28-146-133-130-204c29-133,196-174,306-74c57,51,72,86,66,147c-4,42-10,55-44,87
		c-39,36-94,59-138,59C3934,5879,3907,5873,3885,5865z M4028,5755c27-32,23-57-17-98c-39-40-99-47-140-18c-44,31-42,72,4,118
		c33,33,39,35,82,30C3992,5783,4010,5775,4028,5755z"/>
	<path class="st1" d="M1117,5976c-10-8-28-52-43-107c-81-307-303-563-585-676c-109-43-111-50-35-136c152-175,314-448,301-507
		c-5-21-1-32,13-42c11-7,28-39,37-70c29-100,63-276,58-301c-3-14,2-35,10-48c24-37,41-239,41-484c1-201-1-226-22-292
		c-12-39-38-92-57-117c-19-26-35-52-35-60c0-15,48-66,62-66c6,0,17-9,26-19c24-28,333-191,373-197c62-9,191,23,361,89
		c112,44,209,75,290,92c106,21,235,58,518,147c117,37,232,102,318,182l43,40l-6,85c-36,466-210,980-499,1475c-42,71-76,134-76,139
		c0,6-9,20-19,31c-11,12-55,74-99,139c-90,134-244,336-300,394c-25,26-65,49-122,72c-98,39-309,143-422,207
		C1166,5993,1146,5997,1117,5976z M1361,5637c90-111,152-202,227-329c43-73,49-88,37-98s-18-6-32,20c-37,69-225,346-250,368
		c-23,21-27,22-47,7c-52-38-64-40-117-17c-28,11-57,18-65,15c-9-3-73-77-144-163c-71-87-158-184-193-215c-59-51-65-60-70-105
		c-3-27-13-62-21-79c-24-45-20-69,19-102c43-38,96-124,136-220l30-73l-23-17c-22-17-22-17-73,84c-56,112-121,213-213,329l-60,75
		l68,32c106,51,188,109,283,201c132,126,218,265,277,444l22,68l65-63C1253,5764,1318,5691,1361,5637z M1518,5681
		c85-89,167-194,219-281c20-34,43-64,51-67c22-9,45,22,39,50c-8,30-89,154-150,229c-26,32-47,60-47,63s22-6,48-19c28-14,70-50,99-83
		c79-92,303-400,303-417c0-9-57,4-176,40c-62,18-130,36-153,40c-39,6-43,11-87,88c-26,44-81,131-122,191c-66,97-99,140-226,291
		l-28,34l78-42C1423,5768,1466,5735,1518,5681z M1230,5505c25,0,54,3,65,7c17,6,32-10,101-110c107-154,150-231,138-247
		c-7-11-560-429-593-449c-5-3-31,40-59,97c-27,56-68,123-90,148l-41,46l15,48c7,27,14,56,14,66c0,9,32,48,71,86
		c39,37,108,113,152,168c122,152,127,157,157,148C1174,5509,1205,5505,1230,5505z M1864,5131c51-16,134-38,185-47l93-18l50-86
		c73-122,191-350,181-350c-4,1-102,24-217,53l-209,52l-52,120c-28,66-70,160-93,209s-42,90-42,92C1760,5163,1773,5160,1864,5131z
		 M1743,5013c88-186,129-285,120-293c-4-4-89-44-188-90c-318-145-526-260-675-372l-65-49l-22,98c-12,54-31,127-43,163l-20,65l27,23
		c147,122,777,592,793,592C1674,5150,1706,5088,1743,5013z M1932,4565c79-214,147-504,167-705c11-110,15-102-104-200
		c-135-111-313-216-525-310c-199-89-463-198-509-210c-69-18-72-11-31,74c21,42,43,104,50,138c22,113,10,539-21,712c-9,50-8,61,7,77
		c10,11,21,16,25,12c28-30,60-516,41-628c-12-75-3-95,43-95c42,0,85-34,101-81c11-33,13-34,61-32c62,3,225,54,318,100
		c134,67,305,196,305,229c0,8-9,32-20,54c-25,49-25,112-1,166c20,44,63,84,91,84c38,0,42,21,30,177c-15,220-27,292-66,404
		c-29,82-33,103-22,110C1895,4656,1902,4646,1932,4565z M2108,4620c75-17,101-27,98-37c-3-7,10-45,29-84c19-40,40-96,46-125
		c14-63,29-80,57-65c23,12,37,58,24,74c-5,7-17,37-27,67s-26,72-36,92c-13,25-15,36-7,33c7-2,39-11,70-20c66-18,69-22,136-191
		c97-243,160-473,193-698c11-80,19-151,17-156c-2-6-51,19-109,55l-107,65l-4,118c-6,133-29,234-83,365c-38,90-64,123-90,113
		c-30-11-27-38,13-124c49-107,80-229,89-345l6-87l-44,24c-24,13-79,36-121,51l-77,27l-6,67c-24,247-106,586-191,795c-6,15-4,18,7,14
		C1999,4645,2051,4633,2108,4620z M1821,4520c39-104,39-104-19-96c-53,7-157,45-193,70c-22,15-20,16,72,60c52,24,98,43,103,42
		S1805,4561,1821,4520z M1532,4452c-66-92-177-154-287-160l-70-3l60,37c78,47,307,165,313,159C1550,4483,1543,4468,1532,4452z
		 M1700,4376c41-14,96-27,121-31l47-6l5-47c4-26,9-100,13-164c6-105,5-118-10-118c-28,0-93-74-109-126c-29-91-30-128-7-181l21-48
		l-28-23c-54-45-193-133-255-161c-65-30-219-81-242-81c-7,0-25,17-39,38c-14,22-43,47-66,58l-40,19l-4,220c-4,155-11,260-26,355
		c-22,142-20,157,24,145c142-39,323,15,436,130c33,34,60,54,69,51C1618,4403,1659,4390,1700,4376z M2221,3681c30-10,83-33,119-51
		l65-33l-53-48c-112-102-346-247-489-301c-74-28-50-92,24-68c131,42,395,205,514,317l66,62l99-61c54-33,110-64,123-67
		c22-6,20-9-32-49c-87-65-173-108-287-142c-58-17-152-47-210-65c-58-19-170-48-250-65c-104-22-187-47-292-90
		c-254-102-332-113-430-57l-58,33l173,52c299,92,494,178,655,292c71,50,85,73,60,98c-19,19-29,15-103-39c-108-79-324-180-519-242
		c-327-106-353-113-375-103c-12,5-21,12-21,15s40,21,88,40c276,107,572,244,734,340c91,53,245,169,292,220
		C2149,3705,2151,3706,2221,3681z"/>
	<path class="st1" d="M993,5249c-80-51-65-205,27-266c43-30,117-31,152-3c81,64,75,207-11,266C1115,5277,1039,5279,993,5249z
		 M1131,5171c31-31,37-67,18-104c-25-46-63-49-102-9C965,5143,1047,5254,1131,5171z"/>
	<path class="st1" d="M1413,4119c-84-16-127-51-166-136c-30-66-25-95,24-144c110-110,295-50,348,114c23,69-25,147-101,162
		c-18,4-40,8-48,10C1462,4126,1436,4124,1413,4119z M1534,4031c22-18,20-59-4-99c-46-75-144-96-202-42l-33,29l26,48
		c33,62,76,85,146,80C1495,4045,1526,4038,1534,4031z"/>
	<path class="st1" d="M8500,4826c-341-230-683-582-1013-1041c-272-380-476-790-563-1132c-27-106-28-114-12-129c16-16,24-16,130,12
		c106,27,125,29,298,28c158,0,197-3,263-22c177-49,337-131,465-240c92-78,105-73,148,48c46,128,151,342,217,443
		c116,178,275,340,552,562c142,114,414,289,574,370c134,67,294,97,383,71c39-12,78,29,78,81c-1,91-48,143-340,380
		c-344,278-522,402-723,502c-117,58-310,131-345,131C8603,4890,8552,4861,8500,4826z M8717,4769c185-65,396-185,628-358
		c178-133,502-399,548-450c56-63,52-71-41-71c-109,0-212-29-342-96c-135-68-383-223-505-314c-126-94-367-303-448-390
		c-162-171-298-394-397-645c-13-33-26-63-29-67c-4-4-31,11-61,33c-133,100-277,168-460,217c-84,22-115,25-270,25
		c-130,1-194-3-248-16c-40-9-77-17-82-17c-9,0,32,140,75,259c234,642,885,1480,1449,1867c44,30,83,54,87,54S8668,4786,8717,4769z"/>
	<path class="st1" d="M8830,4560c-69-107-213-133-301-53c-21,19-45,33-52,30c-8-3-94-58-193-123c-170-112-188-127-366-306
		c-103-104-203-208-222-231c-18-23-103-150-187-282c-159-247-352-611-347-649c2-13,18-28,40-38c51-24,68-53,68-114c0-34,5-56,15-64
		c8-7,93-27,187-46c252-48,347-72,409-100c57-27,76-27,144,0c22,8,58,15,80,16c52,0,85,23,85,59c0,44,72,179,147,276
		c253,326,831,778,1131,885c73,27,87,45,66,84c-25,49-18,110,16,149c17,19,30,43,30,54s-29,54-65,96c-138,162-327,297-534,381
		C8885,4623,8868,4620,8830,4560z M9025,4470c151-72,322-199,413-307l41-50l-25-49c-21-40-25-60-22-105l4-57l-80-36
		c-132-59-385-224-559-364c-43-35-79-62-80-60c-2,1-10,35-20,73c-10,39-32,94-50,124c-69,114-223,224-352,251c-50,10-55,14-59,43
		c-21,145-31,184-70,278c-6,13,25,37,136,111c79,52,149,98,156,102c8,5,32-2,60-17c62-33,119-41,186-26c79,17,137,50,171,96
		C8910,4525,8908,4525,9025,4470z M8120,4093c12-38,24-110,27-160c3-51,11-97,17-102c7-6,43-15,81-21c90-14,180-58,250-121
		c109-100,163-272,109-346c-29-39-80-63-137-63c-53,0-173,25-221,46l-31,13l38,1c55,0,71,12,121,89c51,80,61,88,84,68
		c38-33,82-24,82,16c0,31-62,90-94,90c-37,0-91-45-134-111c-20-32-41-60-45-63c-11-8-64,4-95,20c-18,10-20,15-12,31
		c25,46-32,80-72,43c-20-18-24-73-7-105l11-21l-30,21c-16,12-44,38-62,58c-29,33-32,42-27,83c4,39,12,52,52,87c31,27,46,48,43,60
		c-4,23-135,113-163,114c-26,0-45-18-45-41c0-14,46-57,78-75c1,0,0-8-3-16c-5-12-27-14-133-10c-70,2-129,6-131,8c-2,1,18,34,44,71
		c44,63,361,401,377,403C8096,4160,8109,4130,8120,4093z M7838,3592l44-7l4-47c5-64,23-96,90-157c90-82,321-181,424-181
		c15,0,30-3,33-7c4-3-22-38-57-77c-137-154-239-308-261-398c-6-22-14-28-48-33c-23-4-58-14-77-21c-33-13-41-12-117,15
		c-44,17-178,49-296,72l-215,41l-6,40c-9,53-32,98-64,125l-25,21l54,118c52,113,114,222,229,406c52,82,57,87,95,91
		C7712,3599,7793,3599,7838,3592z"/>
	<path class="st1" d="M8664,4176c-65-29-97-111-75-193c16-58,69-132,119-168c41-28,49-30,137-30c85,0,96,2,119,24
		c39,37,60,101,53,167c-13,131-113,214-256,214C8725,4189,8681,4183,8664,4176z M8835,4091c64-28,95-73,95-132c0-80-9-89-89-89
		c-65,0-70,2-106,37c-75,73-88,174-25,196C8741,4114,8796,4109,8835,4091z"/>
	<path class="st1" d="M7785,3150c-92-21-147-86-152-178c-5-68,22-123,77-160c77-52,195-8,245,91C8027,3048,7933,3186,7785,3150z
		 M7873,3058c16-13,22-40,19-85c-1-12-16-38-33-58c-25-29-38-35-69-35c-48,0-70,27-70,85c1,61,44,104,106,105
		C7842,3070,7864,3064,7873,3058z"/>
	<path class="st1" d="M4277,4589c-92-32-232-75-310-96c-78-20-148-41-154-46c-23-17-14-64,27-133c92-158,135-339,127-534
		c-6-141-27-237-82-365c-20-45-33-89-29-98c4-11,24-18,62-22c274-30,543-103,598-162c12-12,31-23,43-23c31,0,68-21,202-111
		c66-45,119-88,122-99c3-12,14-20,27-20c27,0,116-70,271-216c235-220,329-352,329-464c0-55,30-85,74-75c17,4,43,7,58,7
		c15-1,109,21,210,49c180,49,184,50,231,97c62,61,102,127,180,298c42,93,95,186,159,280c53,78,111,171,128,205c18,35,54,101,82,146
		c58,98,100,188,121,263c21,74,39,209,30,224c-5,7-41,43-82,80c-323,294-809,548-1351,707c-74,22-139,44-144,49c-6,6-23,10-38,10
		c-16,0-90,14-166,31c-177,39-432,79-502,78C4460,4649,4400,4633,4277,4589z M4755,4544c194-33,300-57,299-69c-1-6-63-42-138-81
		c-75-40-145-79-156-89c-17-15-23-15-101,9c-168,51-354,88-564,112l-60,7l75,24c67,21,86,23,185,18c125-7,248-26,350-54
		c78-22,108-15,103,22c-4,28-93,58-251,85c-94,17-108,21-87,29c14,6,32,13,40,16C4473,4583,4591,4572,4755,4544z M5330,4410
		c121-35,298-95,308-104c1-2-59-38-135-81s-162-93-191-112l-53-33l-42,21c-23,12-118,53-210,90c-93,37-171,69-173,72
		c-2,2,42,27,98,55c57,28,130,69,163,91s68,40,78,40C5183,4450,5254,4432,5330,4410z M4233,4334c196-29,467-98,467-120
		c0-23-15-23-100,2c-47,13-154,38-238,54c-168,33-182,32-182-21c0-37-28-65-79-79c-30-8-42-17-47-35c-3-13,2-114,11-224
		c13-156,14-217,5-277l-10-77l34-51c19-28,38-63,41-78c10-39,21-45,107-51c58-4,102-16,180-47c57-22,106-44,110-48s4-19,0-33l-7-26
		l-72,28c-99,40-287,87-402,101c-53,6-97,13-99,14s8,34,22,73c104,288,94,564-30,830l-44,94l117-7C4082,4352,4179,4342,4233,4334z
		 M5817,4236c196-84,446-221,593-324c107-75,251-195,243-202c-5-4-59-17-121-29l-113-22l-88,83c-99,93-224,172-345,219
		c-83,32-107,31-114-5c-4-21,15-46,36-46c24,0,194-84,258-127c65-45,164-130,164-143c0-4-14-10-31-14c-17-3-71-22-120-41l-88-36
		l-94,78c-174,144-322,242-545,360l-113,60l102,58c60,34,104,53,108,47c3-5,35-22,71-36c36-15,91-43,123-62c32-20,65-33,73-30
		c22,8,28,34,15,59c-10,20-116,77-195,107c-16,6-27,12-25,14c5,5,121,66,125,66C5737,4270,5774,4255,5817,4236z M4394,4190
		c100-20,255-62,275-74c5-4,5-22,0-44c-7-32-53-308-109-646c-5-32-11-61-13-63s-28,8-58,21c-85,37-187,66-235,66c-41,0-45,2-65,43
		c-12,23-26,48-32,56c-7,8-12,71-12,165c0,83-5,204-9,268l-9,116l34,15c38,16,89,70,89,93c0,10,6,14,18,10
		C4277,4214,4334,4202,4394,4190z M4881,4161c100-37,319-128,327-136c2-2-31-90-73-197c-138-347-207-562-236-738c-7-41-13-77-15-78
		c-1-2-54,30-116,71c-62,42-125,81-140,88c-16,7-28,15-28,19s14,96,30,206c63,411,133,804,144,804C4776,4200,4824,4183,4881,4161z
		 M5387,3939c225-118,399-231,559-364l96-80l-6-100c-10-162-65-376-156-605c-87-218-233-537-258-563l-27-28l-21,69
		c-27,90-68,161-147,252c-71,84-249,253-380,361c-73,61-87,77-87,101v30l43-31c153-113,388-341,440-428c21-36,55-44,77-19
		c6,8,27,20,46,26c30,10,40,9,74-9c22-11,46-18,54-15c17,7,94,121,134,200c68,134,122,334,122,449v52l-47,18c-58,21-89,48-114,97
		c-23,44-25,116-4,144c8,10,15,26,15,36c0,18-211,216-305,286c-33,25-85,57-115,71c-118,58-121,60-110,81c6,11,12,20,15,20
		C5287,3990,5333,3967,5387,3939z M5323,3835c42-22,76-44,74-50c-6-18-111-75-176-95c-35-11-65-19-66-18c-5,6,79,208,84,206
		C5242,3876,5280,3857,5323,3835z M5532,3693c29-25,81-72,116-104l62-59l-11-46c-26-100,40-237,132-278l50-21l-7-50
		c-17-141-77-313-152-438c-34-57-50-76-62-71c-35,14-88,15-127,1l-41-14l-36,48c-54,70-225,231-359,338c-72,57-117,100-117,111
		s18,29,44,44c122,72,220,269,203,412c-4,40-2,47,15,52c32,8,151,69,188,96c19,14,38,25,42,26C5476,3740,5503,3719,5532,3693z
		 M6689,3523c-27-110-50-162-126-288c-33-55-76-131-96-170c-19-38-67-115-107-170c-45-63-107-174-170-301c-121-247-154-287-252-314
		c-38-10-68-16-68-13c0,4,29,56,64,117c179,313,252,486,292,693c17,89,12,113-22,113c-28,0-37-19-48-93c-25-166-135-421-311-720
		c-41-70-75-132-75-138c0-5-6-9-14-9s-21-3-29-6c-10-4,4,38,40,118c168,375,249,583,293,753c27,108,50,240,50,295c0,71,8,85,58,110
		c46,22,178,70,194,70c13,0,9-87-7-178c-21-124-61-266-101-362c-46-110-52-138-29-146c26-10,47,7,74,61c71,144,141,428,141,575v67
		l108,22c59,13,118,26,132,30C6715,3650,6716,3630,6689,3523z M5150,3548c0-60-6-100-22-145c-22-64-108-187-116-165
		c-8,24,114,392,130,392C5146,3630,5150,3593,5150,3548z"/>
	<path class="st1" d="M4293,3899c-44-22-83-82-83-128c0-81,112-161,201-145c123,23,159,143,71,238C4428,3921,4363,3934,4293,3899z
		 M4427,3814c54-60,34-114-42-114c-57,0-95,30-95,74C4290,3846,4377,3871,4427,3814z"/>
	<path class="st1" d="M5357,3331c-58-37-107-118-107-177c0-56,26-137,51-160c16-15,36-19,88-19c58,0,74,4,109,29
		c57,39,87,103,86,182C5583,3335,5474,3405,5357,3331z M5485,3270c26-29,32-118,11-159c-28-53-105-87-143-63c-7,4-17,29-23,56
		c-14,64-1,104,51,150C5425,3295,5458,3299,5485,3270z"/>
	<path class="st1" d="M3414,3362c-7-4-26-49-43-99c-38-114-67-174-139-283c-139-210-375-382-617-451c-44-13-86-27-92-32
		c-23-17-13-49,36-116c90-122,161-240,221-363c102-214,137-348,181-688c37-284,28-779-17-955c-23-91-70-181-109-211
		c-43-33-50-55-30-94c25-48,92-74,169-67c87,9,636,180,860,269c219,87,467,228,584,333l52,47v93c0,709-336,1727-768,2329
		c-89,123-240,296-260,296C3433,3370,3420,3366,3414,3362z M3609,3053c213-286,392-645,543-1092c144-425,214-768,225-1102l6-177
		l-83-61c-239-178-513-294-1134-481c-124-37-183-50-217-48l-48,3l39,57c102,153,137,380,127,841c-12,587-109,948-354,1315
		c-43,64-78,121-78,126c0,4,20,15,45,23c149,49,332,159,455,275c123,115,266,334,307,470l12,41l40-44C3515,3175,3567,3109,3609,3053
		z"/>
	<path class="st1" d="M3205,2756c-111-113-208-201-252-230c-68-46-71-49-81-101c-6-30-23-77-37-104c-14-28-25-55-25-60s18-29,41-53
		c85-91,178-340,214-573c9-60,21-130,26-155c37-175,52-692,24-870c-8-52-19-109-24-127c-12-39,9-73,45-73c56,0,114-55,114-108
		c0-10,8-27,19-36c16-15,28-16,107-6c221,27,417,100,611,226c103,66,109,78,82,141c-25,58-27,93-9,157c19,67,73,123,128,132
		c26,4,47,14,52,25c13,23,13,367,0,484c-5,50-19,119-30,155s-31,128-45,205c-30,172-35,188-179,510c-108,241-278,562-326,613
		c-26,27-34,27-70,0c-38-27-80-26-135,6c-24,14-49,26-56,26S3304,2857,3205,2756z M3451,2820c48-21,103-25,142-11c24,9,28,4,110-137
		c80-137,227-445,227-475c0-15-88-158-124-201l-24-29l-53,27c-61,30-104,32-180,10c-121-36-255-121-352-223c-32-33-60-55-62-48
		s-9,37-15,67c-35,157-110,343-177,434l-28,39l26,80c25,74,30,81,81,114c29,20,127,111,218,204s166,169,166,169
		C3407,2840,3427,2831,3451,2820z M4023,1996c24-61,44-137,57-217c11-68,31-164,45-213s23-91,22-92c-13-14-208,64-267,106
		c-15,11-36,20-45,20s-45-29-78-64c-95-97-207-146-338-146c-86,0-162,24-207,64c-32,29-36,40-40,92c-3,53,0,64,28,106
		c32,48,113,128,173,170l32,23l-27-34c-35-41-36-90-4-162c13-30,27-66,30-81c5-23,2-27-24-33c-35-8-50-46-29-71c16-20,77-14,114,10
		c35,23,34,97-4,192c-31,81-29,91,25,124l35,22l20-21c25-26,41-27,64-1c17,19,18,22,2,55c-10,20-26,36-39,39s-32,7-43,9
		c-32,6,29,29,92,35c84,7,122-28,133-122c8-72,22-76,115-36c110,48,129,73,81,105c-23,15-27,15-65-4c-50-26-51-26-51,0
		c0,11,20,44,43,74c24,29,57,74,73,99c16,25,31,46,34,46S4002,2048,4023,1996z M4065,1404c39-9,76-18,83-20c9-3,12-50,12-192v-189
		l-41-18c-115-52-191-239-143-353c15-36,15-37-12-59c-121-97-403-206-581-226c-47-5-52-4-57,16c-9,36-64,94-104,112l-38,17l13,72
		c20,113,27,411,14,605c-7,95-10,175-8,177s27-5,56-16c164-63,386-14,529,115l55,51l76-38C3961,1438,4027,1413,4065,1404z"/>
	<path class="st1" d="M3270,2554c-89-31-116-59-126-136c-9-61,11-122,54-170c63-70,140-87,203-45c91,61,113,180,51,275
		C3422,2524,3314,2569,3270,2554z M3367,2435c33-33,35-39,30-81c-11-105-105-116-156-17c-17,33-13,72,10,104
		C3280,2483,3322,2480,3367,2435z"/>
	<path class="st1" d="M3512,1154c-31-11-54-31-82-68c-58-77-71-113-56-157c56-162,256-199,389-71c106,102,102,229-8,286
		C3703,1171,3574,1176,3512,1154z M3707,1071c22-11,44-28,47-39c13-41-36-117-96-148c-15-8-50-14-79-14c-46,0-55,4-90,39
		c-22,21-39,43-39,49c0,21,67,98,100,114C3595,1095,3654,1094,3707,1071z"/>
	<path class="st1" d="M8842.4,2111c-258-212-536-346-845-408c-324-64-390-71-750-71c-361,0-390,3-506,55c-37,16-69,40-83,59
		c-18,25-30,31-57,31c-73,0-114-94-90-206c13-64,156-460,238-664c125-308,277-564,432-728c38-40,43-42,96-42c244,0,641,77,980,190
		c656,219,1162,499,1533,850c78,74,97,97,97,120c0,27-4,30-87,55c-119,35-135,41-236,93c-263,133-462,365-556,645
		c-26,76-30,82-57,84C8928.4,2176,8905.4,2163,8842.4,2111z M8956.4,1982c134-319,403-571,734-686c37-13,67-27,67-30
		c0-9-128-122-225-199c-486-385-1362-744-2015-825c-68-8-157-15-197-15h-72l-59,72c-123,151-236,347-335,579
		c-45,105-206,536-246,658c-19,58-28,131-16,131c2,0,33-15,67-34c137-75,255-96,528-96c313,0,527,22,844,86c287,58,546,178,796,368
		c47,35,88,65,91,65C8921.4,2057,8938.4,2023,8956.4,1982z"/>
	<path class="st1" d="M8708.4,1835c-156-167-663-308-1254-349c-166-12-292-8-431,13c-73,11-79,11-92-7c-8-10-14-34-14-53
		c0-43-54-102-94-102c-47,0-57-32-40-132c28-175,105-370,205-523c71-109,118-165,139-165c10,0,43,12,73,26c51,23,61,24,113,15
		c92-17,164-77,164-137c0-44,18-47,213-40c239,9,330,21,441,56c50,16,152,43,226,59c131,29,144,35,445,185c375,187,655,360,655,405
		c0,15-9,34-20,44c-30,25-30,72,1,125c35,61,29,72-98,184c-169,148-279,256-321,313c-45,62-44,61-104,68c-27,4-74,18-105,32
		c-30,14-57,25-59,25C8750.4,1877,8730.4,1858,8708.4,1835z M8892.4,1737c15,0,34-11,48-27c85-101,128-144,252-255
		c181-162,171-147,150-203c-17-42-17-106-1-145c9-21-225-172-432-278l-166-85l-72,37c-40,21-94,53-119,72l-46,35l20,32
		c30,49,35,97,17,168c-31,120-146,289-260,382l-55,45l128,41c153,50,309,125,370,179l45,39l48-19
		C8846.4,1745,8878.4,1737,8892.4,1737z M8156.4,1455c44-21,207-175,197-186c-3-3-14,2-24,11c-35,32-76,32-144-1c-35-17-75-34-91-37
		c-24-6-29-4-38,23c-14,40-45,51-71,24c-19-19-19-23-6-63c8-23,26-52,41-63c24-18,31-18,79-8c28,7,78,24,110,39l59,26l25-24
		c40-38,48-58,30-78c-22-24-20-58,3-71c38-20,87,15,97,68l7,36l18-45c44-109-2-199-104-199c-68,0-73-34-19-135c30-56,42-71,63-73
		c15-2,31,4,39,13c11,14,10,23-8,61c-26,53-26,50-6,58c10,4,40-12,83-43c36-27,83-57,104-67c20-10,37-21,37-24c0-20-191-93-313-120
		c-72-16-165-41-206-55c-41-14-76-25-78-25s-3,11-3,24c0,40,40,158,76,223c19,34,34,68,34,76c0,7-26,34-58,59
		c-126,98-195,268-171,421c12,72,48,141,87,161C8044.4,1483,8104.4,1480,8156.4,1455z M7852.4,1395c-26-63-31-199-11-278
		c24-97,74-186,141-257l60-62l-27-58c-23-49-36-93-74-249c-2-11-50-15-321-27c-60-3-63-2-72,23c-39,113-233,193-356,146
		c-24-10-49-15-55-11c-19,12-107,149-147,230c-48,95-87,200-108,291c-22,93-20,111,13,128c38,20,78,65,96,107l15,36l58-9
		c85-14,514-1,668,20c72,10,132,17,134,15C7868.4,1439,7862.4,1419,7852.4,1395z"/>
	<path class="st1" d="M8839.4,1534c-124-47-180-190-105-269c76-80,188-87,269-16c40,36,59,68,68,120c9,50-24,128-65,152
		C8968.4,1543,8882.4,1550,8839.4,1534z M8950.4,1446c50-27,51-77,2-126c-33-33-39-35-81-30c-52,5-84,30-84,64
		C8787.4,1427,8883.4,1481,8950.4,1446z"/>
	<path class="st1" d="M7416.4,1224c-59-40-93-99-97-173c-6-86,15-139,77-198c85-79,166-97,232-52c48,33,72,86,77,168
		c6,89-17,156-68,202C7553.4,1247,7477.4,1265,7416.4,1224z M7543.4,1135c58-39,78-75,78-143c2-133-75-166-171-73
		c-64,62-67,151-8,213c18,19,37,35,43,35C7490.4,1167,7517.4,1152,7543.4,1135z"/>
</g>
</svg>
